<svg
   width="24"
   height="24"
   viewBox="0 0 24 24"
   xmlns:svg="http://www.w3.org/2000/svg">
    <path
       d="m 18.363281,4.2226562 -2.828125,2.828125 1.414063,1.4140626 2.828125,-2.8281251 z M 7.0507812,15.535156 4.2226562,18.363281 5.6367187,19.777344 8.4648438,16.949219 Z M 5.6367187,4.2226562 4.2226562,5.6367187 7.0507812,8.4648438 8.4648438,7.0507812 Z m 11.3125003,11.3124998 -1.414063,1.414063 2.828125,2.828125 1.414063,-1.414063 z M 11,18 v 4 h 2 V 18 Z M 11,2 v 4 h 2 V 2 Z m -9,9 v 2 h 4 v -2 z m 16,0 v 2 h 4 V 11 Z M 12,8 c -2.2091368,0 -4,1.7908632 -4,4 0,2.209137 1.7908632,4 4,4 2.209137,0 4,-1.790863 4,-4 0,-2.2091368 -1.790863,-4 -4,-4 z" />
</svg>
