<svg xmlns="http://www.w3.org/2000/svg" fill="none" viewBox="0 0 96 96">
<path d="M29.168,21.013c0.557,-0.633 1.461,-0.83 2.23,-0.485c0.248,0.111 0.504,0.226 0.743,0.334c0.651,0.292 1.411,0.199 1.973,-0.242c0.686,-0.539 1.628,-1.277 2.342,-1.838c0.625,-0.49 1.487,-0.546 2.169,-0.14c0.735,0.437 1.689,1.005 2.424,1.443c0.683,0.406 1.545,0.35 2.169,-0.14c0.673,-0.528 1.547,-1.214 2.22,-1.742c0.624,-0.49 1.486,-0.546 2.168,-0.14c0.735,0.438 1.69,1.005 2.425,1.443c0.682,0.406 1.544,0.35 2.169,-0.14c0.672,-0.528 1.546,-1.214 2.219,-1.742c0.624,-0.49 1.486,-0.546 2.169,-0.14c0.78,0.465 1.808,1.077 2.558,1.523c0.614,0.365 1.38,0.36 1.988,-0.014c0.223,-0.137 0.463,-0.284 0.694,-0.426c0.718,-0.441 1.64,-0.362 2.273,0.195c0.79,0.693 1.861,1.635 2.65,2.328c0.633,0.557 0.83,1.461 0.485,2.23c-0.111,0.248 -0.226,0.504 -0.334,0.743c-0.292,0.651 -0.199,1.411 0.242,1.973c0.539,0.686 1.277,1.628 1.838,2.342c0.49,0.625 0.546,1.487 0.14,2.169c-0.437,0.735 -1.005,1.689 -1.443,2.424c-0.406,0.683 -0.35,1.545 0.14,2.169c0.528,0.673 1.214,1.547 1.742,2.22c0.49,0.624 0.546,1.486 0.14,2.168c-0.438,0.735 -1.006,1.69 -1.443,2.425c-0.406,0.682 -0.35,1.544 0.14,2.169c0.528,0.672 1.214,1.546 1.742,2.219c0.49,0.624 0.545,1.486 0.139,2.169c-0.464,0.78 -1.076,1.808 -1.522,2.558c-0.365,0.614 -0.36,1.38 0.014,1.988c0.137,0.223 0.284,0.463 0.426,0.694c0.441,0.718 0.362,1.64 -0.195,2.274c-0.693,0.789 -1.635,1.86 -2.328,2.649c-0.557,0.633 -1.461,0.83 -2.23,0.485c-0.248,-0.111 -0.504,-0.226 -0.743,-0.334c-0.651,-0.292 -1.411,-0.199 -1.973,0.242c-0.687,0.539 -1.628,1.277 -2.342,1.838c-0.625,0.49 -1.487,0.546 -2.169,0.14c-0.735,-0.437 -1.689,-1.005 -2.424,-1.443c-0.683,-0.406 -1.545,-0.35 -2.169,0.14c-0.673,0.528 -1.547,1.214 -2.22,1.742c-0.624,0.49 -1.486,0.546 -2.168,0.14c-0.735,-0.438 -1.69,-1.006 -2.425,-1.443c-0.682,-0.406 -1.544,-0.35 -2.169,0.14c-0.672,0.528 -1.546,1.214 -2.219,1.742c-0.625,0.49 -1.486,0.545 -2.169,0.139c-0.78,-0.464 -1.808,-1.076 -2.558,-1.522c-0.614,-0.365 -1.38,-0.36 -1.988,0.014c-0.223,0.137 -0.463,0.284 -0.694,0.426c-0.718,0.441 -1.64,0.362 -2.274,-0.195c-0.789,-0.693 -1.86,-1.635 -2.649,-2.328c-0.633,-0.557 -0.83,-1.461 -0.485,-2.23c0.111,-0.248 0.226,-0.504 0.334,-0.743c0.292,-0.651 0.199,-1.411 -0.242,-1.973c-0.539,-0.686 -1.277,-1.628 -1.838,-2.342c-0.49,-0.625 -0.546,-1.487 -0.14,-2.169c0.437,-0.735 1.005,-1.689 1.443,-2.424c0.406,-0.683 0.35,-1.545 -0.14,-2.169c-0.528,-0.673 -1.214,-1.547 -1.742,-2.22c-0.49,-0.624 -0.546,-1.486 -0.14,-2.168c0.438,-0.735 1.005,-1.69 1.443,-2.425c0.406,-0.682 0.35,-1.544 -0.14,-2.169c-0.528,-0.672 -1.214,-1.546 -1.742,-2.219c-0.49,-0.625 -0.546,-1.486 -0.14,-2.169c0.465,-0.78 1.077,-1.808 1.523,-2.558c0.365,-0.614 0.36,-1.38 -0.014,-1.988c-0.137,-0.223 -0.284,-0.463 -0.426,-0.694c-0.441,-0.718 -0.362,-1.64 0.195,-2.274c0.693,-0.789 1.635,-1.86 2.328,-2.649Z" />
<path d="M33.594,27.593l27.283,-1.759l1.758,27.283l-27.282,1.758l-1.759,-27.282Z" />
<path d="M47.234,61.875c-0,-0.913 0.741,-1.655 1.655,-1.655c0.913,0 1.655,0.742 1.655,1.655l0.845,17c-0,1.38 -1.12,2.5 -2.5,2.5c-1.38,0 -2.5,-1.12 -2.5,-2.5l0.845,-17Z" />
<path d="M52.889,34.875l0.167,2.996" />
<path d="M42.889,35.88l0.167,2.995" />
<path d="M51.424,42.875c-0.37,2.805 -4.798,3.098 -5.535,0.367" />
<path d="M25.889,40.875l-8,-5" />
<path d="M70.341,38.875l10.445,-2.995" />
    <style>
        path { stroke: #000; stroke-width: 3px; }
        @media (prefers-color-scheme: dark) {
            path { stroke: #FFF; }
        }
    </style>
</svg>
